<svg width="12" height="16" viewBox="0 0 12 16" fill="none" xmlns="http://www.w3.org/2000/svg">
<path d="M2 14V8.45C2.1625 8.48125 2.32812 8.5 2.5 8.5H3V9.5V14C3 14.275 2.775 14.5 2.5 14.5C2.225 14.5 2 14.275 2 14ZM2.5 7C1.94687 7 1.5 6.55313 1.5 6V5.25C1.5 3.17812 3.17812 1.5 5.25 1.5H6.75C8.39062 1.5 9.78437 2.55312 10.2937 4.02187C10.1969 4.00625 10.1 4 10 4C9.375 4 8.81562 4.2875 8.44687 4.7375C8.16562 4.58438 7.84062 4.5 7.5 4.5C7.02812 4.5 6.59375 4.66563 6.25 4.9375C5.90625 4.6625 5.47188 4.5 5 4.5H3.75C3.33437 4.5 3 4.83437 3 5.25C3 5.66563 3.33437 6 3.75 6H5C5.275 6 5.5 6.225 5.5 6.5C5.5 6.775 5.275 7 5 7H3.75H2.5ZM0 6C0 6.5625 0.1875 7.08125 0.5 7.5V14C0.5 15.1031 1.39688 16 2.5 16C3.60312 16 4.5 15.1031 4.5 14V11.4375C4.65937 11.4781 4.82812 11.5 5 11.5C5.79062 11.5 6.475 11.0406 6.8 10.375C7.01875 10.4562 7.25312 10.5 7.5 10.5C8.125 10.5 8.68438 10.2125 9.05313 9.7625C9.33438 9.91562 9.65938 10 10 10C11.1031 10 12 9.10312 12 8V6V5.25C12 2.35 9.65 0 6.75 0H5.25C2.35 0 0 2.35 0 5.25V6ZM10.5 8C10.5 8.275 10.275 8.5 10 8.5C9.725 8.5 9.5 8.275 9.5 8V6.5V6C9.5 5.725 9.725 5.5 10 5.5C10.275 5.5 10.5 5.725 10.5 6V8ZM5 8.5C5.17188 8.5 5.34063 8.47812 5.5 8.4375V8.5V9.5C5.5 9.775 5.275 10 5 10C4.725 10 4.5 9.775 4.5 9.5V8.5H5ZM7 7.75V6.5C7 6.225 7.225 6 7.5 6C7.775 6 8 6.225 8 6.5V8V8.5C8 8.775 7.775 9 7.5 9C7.225 9 7 8.775 7 8.5V7.75Z" fill="#9891F8"/>
</svg>
